Coordinates
version=1
nRows=19
nColumns=36
inDegrees=yes

Units are S.I. units (second, meters, Newtons, ...)
If the header above contains a line with 'inDegrees', this indicates whether rotational values are in degrees (yes) or radians (no).

endheader
time	pelvis_tilt	pelvis_list	pelvis_rotation	pelvis_tx	pelvis_ty	pelvis_tz	hip_flexion_r	hip_adduction_r	hip_rotation_r	knee_angle_r	knee_angle_r_beta	ankle_angle_r	subtalar_angle_r	mtp_angle_r	hip_flexion_l	hip_adduction_l	hip_rotation_l	knee_angle_l	knee_angle_l_beta	ankle_angle_l	subtalar_angle_l	mtp_angle_l	lumbar_extension	lumbar_bending	lumbar_rotation	arm_flex_r	arm_add_r	arm_rot_r	elbow_flex_r	pro_sup_r	arm_flex_l	arm_add_l	arm_rot_l	elbow_flex_l	pro_sup_l
      3.75000000	     17.05785414	      1.64765088	     -4.81961542	      0.77582996	      0.95692794	     -0.08914933	    -10.01943699	     -4.76424602	      4.90120209	      5.35422729	      0.09344890	      7.62994757	    -17.53612101	     -7.49999987	     -9.41349022	     -5.06406232	      0.18489502	      6.13961238	      0.10715645	      9.16159968	    -11.68427808	     -7.49999987	    -21.15653438	      2.28604225	     -4.61294128	      9.27001349	     -9.18154056	     21.35258800	     14.15961743	     75.57462347	      8.47495309	    -10.05664114	     13.68524682	     20.85521283	     68.80642346
      3.76666670	     17.01775447	      1.62642133	     -5.01629486	      0.77747332	      0.95716938	     -0.09003171	    -10.46283907	     -4.90674328	      4.91683774	      4.37123909	      0.07629251	      7.56164317	    -17.02710843	     -7.49999987	     -9.75732028	     -4.94904704	      0.29054631	      5.71534848	      0.09975165	      9.03881455	    -11.69148910	     -7.49999987	    -20.88486468	      2.18062203	     -4.74771972	      8.92102185	     -8.93761462	     20.58007936	     14.21058621	     74.46820082	      7.66387753	     -9.93491826	     13.09231051	     20.04162853	     67.73153222
      3.78333330	     16.96135848	      1.64120810	     -5.17900915	      0.78258583	      0.95791359	     -0.09152113	    -10.92373285	     -5.08677353	      4.91156113	      3.59903150	      0.06281495	      7.27585647	    -16.81726228	     -7.49999987	    -10.24451052	     -4.79038923	      0.57772388	      5.12107671	      0.08937965	      8.59399735	    -11.99372032	     -7.49999987	    -20.43662113	      2.04462605	     -4.74189725	      8.38372337	     -8.78598259	     20.69511818	     14.33619178	     74.41133318	      7.03179560	     -9.63570451	     13.01943926	     18.77426557	     65.99418705
      3.80000000	     17.10029629	      1.65801635	     -5.35231855	      0.78428338	      0.95595266	     -0.09294592	    -11.39996607	     -5.32809766	      4.46744980	      3.09016483	      0.05393355	      8.08552848	    -15.06085730	     -7.49999987	    -10.95494076	     -4.57934379	      0.75853279	      4.44380410	      0.07755901	      8.53312451	    -12.10646652	     -7.49999987	    -20.27648048	      1.91547593	     -4.77172159	      7.99653690	     -8.66870972	     20.93846163	     14.57606283	     73.41279265	      6.44118741	     -9.31113441	     12.80385420	     17.87903145	     64.38516200
      3.81666670	     17.13670346	      1.70086083	     -5.50405307	      0.78030929	      0.95602501	     -0.09466295	    -11.54610078	     -5.49740506	      4.61286684	      2.80154109	      0.04889612	      7.53829721	    -15.38902570	     -7.49999987	    -11.21458539	     -4.38942458	      0.54534737	      4.08830711	      0.07135442	      8.36950890	    -12.11729516	     -7.49999987	    -20.30017961	      1.65696513	     -4.86937716	      7.66404132	     -8.30251249	     20.90962904	     14.81299309	     73.50861579	      5.93571170	     -9.15019725	     12.73409654	     17.43808466	     64.21790487
      3.83333330	     17.47384905	      1.62911867	     -5.74211881	      0.78100089	      0.95379442	     -0.09535061	    -12.01623341	     -5.58079232	      4.83201166	      2.65422948	      0.04632504	      6.95760056	    -15.84443385	     -7.49999987	    -11.68889878	     -4.27707689	      0.50693670	      3.87729803	      0.06767162	      8.14027268	    -12.75373423	     -7.49999987	    -20.75738570	      1.58167877	     -4.71736678	      7.60617404	     -8.14210859	     22.55383214	     15.20291733	     70.33699084	      5.79607342	     -8.90056476	     12.92794224	     17.04432966	     61.52664312
      3.85000000	     17.47344089	      1.65918693	     -5.95997412	      0.77905647	      0.95704502	     -0.09656423	    -12.00870452	     -5.77638860	      4.71249061	      2.43939792	      0.04257553	      6.65572647	    -15.77715482	     -7.49999987	    -11.70833553	     -4.08095123	      0.24596771	      3.69827315	      0.06454704	      7.86130935	    -12.85202577	     -7.49999987	    -20.95313198	      1.40878720	     -4.53163362	      7.45746150	     -7.90649418	     22.40737187	     15.72462666	     69.77909511	      5.68177429	     -8.60621894	     12.62539200	     16.89787043	     60.69656154
      3.86666670	     17.53989241	      1.56388931	     -6.13831742	      0.77836719	      0.95661313	     -0.09690717	    -12.08002962	     -5.79193877	      4.64450221	      2.23152554	      0.03894747	      6.31639579	    -15.60392339	     -7.49999987	    -11.70274867	     -4.02942799	      0.23972757	      3.75519484	      0.06554051	      7.53714038	    -13.22240069	     -7.49999987	    -21.35822206	      1.38693100	     -4.40627339	      7.62623470	     -7.74518316	     23.86275026	     15.97809927	     68.39854721	      5.60489380	     -8.44570953	     13.06237110	     17.05887635	     60.00403632
      3.88333330	     17.76360025	      1.54074745	     -6.21352006	      0.78275475	      0.95572927	     -0.09739465	    -12.46922211	     -5.85510887	      4.58914552	      2.10226031	      0.03669136	      6.10221805	    -15.51195311	     -7.49999987	    -12.02059425	     -3.96160689	      0.07123828	      3.72794828	      0.06506497	      7.27626238	    -13.46402758	     -7.49999987	    -21.76578281	      1.27469872	     -4.26770740	      7.56750137	     -7.45155916	     23.24489124	     16.09489173	     70.81503303	      5.49987094	     -8.24924660	     13.38812555	     17.19076814	     59.10222984
      3.90000000	     17.91295101	      1.52155020	     -6.36412394	      0.78502471	      0.95395216	     -0.09799919	    -12.74687644	     -5.95859571	      4.55794934	      1.97113159	      0.03440274	      5.91904421	    -15.58833814	     -7.49999987	    -12.29738276	     -3.89467436	     -0.03449739	      3.76003098	      0.06562492	      7.24153281	    -13.49897780	     -7.49999987	    -22.11708970	      1.11191886	     -4.01728168	      7.57076758	     -7.26213838	     23.58260453	     16.24556521	     70.11211917	      5.45075265	     -8.02585667	     13.55567549	     17.31908727	     58.96327310
      3.91666670	     17.89809190	      1.44306682	     -6.51008215	      0.78618925	      0.94869580	     -0.09984069	    -12.80663575	     -5.98383724	      4.48530015	      1.91076723	      0.03334918	      5.92722347	    -15.63857456	     -7.49999987	    -12.40852347	     -3.86548028	     -0.02433159	      3.82673060	      0.06678905	      7.29441687	    -13.53735828	     -7.49999987	    -22.19177195	      1.06249094	     -3.90423002	      7.62780678	     -7.08460133	     23.59205910	     16.30284545	     70.12629476	      5.34860368	     -7.75681596	     13.58803263	     17.34840989	     58.96130826
      3.93333330	     18.41048786	      1.31572849	     -6.65560742	      0.78647453	      0.94948848	     -0.10116881	    -13.62871726	     -6.04720526	      4.53928189	      1.56976622	      0.02739759	      5.36807436	    -16.10193750	     -7.49999987	    -13.17890287	     -3.81706770	     -0.14829175	      3.70647892	      0.06469026	      7.11076434	    -14.02764306	     -7.49999987	    -23.02304115	      1.03607566	     -3.50095905	      7.72538963	     -7.14388380	     23.68396566	     16.58606496	     70.84665721	      5.61912501	     -7.56736735	     14.66149325	     17.76981446	     57.94323672
      3.95000000	     18.50856373	      1.26370700	     -6.79952205	      0.79013154	      0.95041592	     -0.10206087	    -13.98661858	     -6.15354531	      4.71141423	      1.33525609	      0.02330462	      4.99760687	    -16.49880791	     -7.49999987	    -13.58121590	     -3.71971602	     -0.28724537	      3.46746527	      0.06051869	      6.95493641	    -14.22528424	     -7.49999987	    -23.18314729	      0.92069731	     -3.18159805	      7.73810995	     -7.11133893	     24.28939436	     16.76199988	     67.55187745	      5.79493555	     -7.26804042	     14.77795831	     17.91773376	     58.52569785
      3.96666670	     18.68969994	      1.28451790	     -6.84405865	      0.79484022	      0.95016300	     -0.10321984	    -14.52047754	     -6.32889939	      4.57294718	      1.16954251	      0.02041237	      4.94039814	    -16.28256957	     -7.49999987	    -14.18694768	     -3.56185193	     -0.25248225	      3.15306133	      0.05503130	      6.54344936	    -14.66579851	     -7.49999987	    -23.34543161	      0.77594987	     -3.02426313	      7.63678767	     -6.93770478	     22.20438758	     16.76832671	     72.71257815	      5.91243393	     -7.13349282	     16.19464390	     18.29777840	     56.27453575
      3.98333330	     18.64759786	      1.36571502	     -6.87217709	      0.79649993	      0.95099700	     -0.10438189	    -14.78637623	     -6.51750143	      4.55571956	      1.04667372	      0.01826790	      4.81295290	    -16.24098969	     -7.49999987	    -14.55529060	     -3.35380513	     -0.15299429	      2.72000099	      0.04747297	      6.18589928	    -15.04628827	     -7.49999987	    -23.30984803	      0.58481318	     -2.83220974	      7.55070762	     -6.92480386	     22.86348245	     16.87671617	     69.93120257	      6.07388976	     -6.93044413	     16.40071928	     18.48436123	     57.42265111
      4.00000000	     18.57495092	      1.42234094	     -6.94077266	      0.79663430	      0.95119945	     -0.10511235	    -14.90620682	     -6.67363780	      4.41171864	      0.88718448	      0.01548429	      4.87199378	    -15.64473735	     -7.49999987	    -14.79742397	     -3.19582904	     -0.44942528	      2.32224801	      0.04053087	      6.18398671	    -14.80819638	     -7.49999987	    -23.32200727	      0.42017314	     -2.59929480	      7.58418461	     -6.97638091	     24.02096999	     17.11701917	     66.90706663	      6.30581944	     -6.81693378	     16.73583979	     18.87343962	     58.58619486
      4.01666670	     18.46119747	      1.51375653	     -6.92492855	      0.80103259	      0.94814070	     -0.10666088	    -15.02726530	     -6.85338903	      4.68147467	      0.76478280	      0.01334798	      4.43693922	    -15.92578411	     -7.49999987	    -14.99217881	     -3.00231367	     -0.40729731	      1.99479981	      0.03481582	      5.79575681	    -15.02084199	     -7.49999987	    -23.25655404	      0.27909330	     -2.35576162	      7.50283595	     -6.83432590	     22.18797407	     17.10049744	     71.75417037	      6.52329770	     -6.77728611	     18.02953714	     19.32839980	     56.53248540
      4.03333330	     18.39322763	      1.58768236	     -6.90287173	      0.80304873	      0.94585435	     -0.10707407	    -15.14829176	     -6.99139343	      4.69364798	      0.66936358	      0.01168260	      4.47731937	    -15.46692450	     -7.49999987	    -15.20895721	     -2.84231463	     -0.51282045	      1.63787311	      0.02858628	      5.50162014	    -15.01743803	     -7.49999987	    -23.25826197	      0.10577068	     -2.18073456	      7.58390476	     -6.84467251	     22.99969512	     17.35096365	     70.30541541	      6.73611864	     -6.72433086	     18.28982952	     19.69990365	     57.24544552
      4.05000000	     18.28825265	      1.67300918	     -6.84815716	      0.80472825	      0.94163285	     -0.10904842	    -15.20809347	     -7.15911323	      4.79670933	      0.60621859	      0.01058051	      4.55741200	    -15.30871023	     -7.49999987	    -15.25856579	     -2.67279717	     -0.33077543	      1.34139126	      0.02341169	      4.84112058	    -15.32927683	     -7.49999987	    -23.28505626	     -0.03505922	     -2.00533421	      7.83293578	     -6.93981797	     24.82637390	     17.51388897	     67.08101203	      6.96633949	     -6.65513209	     18.20054116	     20.04479363	     59.21704304
